<svg xmlns="http://www.w3.org/2000/svg" class="svg-inline--fa fa-calendar-minus fa-w-14 fa-7x" role="img" aria-hidden="true" viewBox="0 0 448 512" focusable="false" data-prefix="fal" data-icon="calendar-minus">
    <path class="" fill="currentColor" d="M 400 64 h -48 V 12 c 0 -6.6 -5.4 -12 -12 -12 h -8 c -6.6 0 -12 5.4 -12 12 v 52 H 128 V 12 c 0 -6.6 -5.4 -12 -12 -12 h -8 c -6.6 0 -12 5.4 -12 12 v 52 H 48 C 21.5 64 0 85.5 0 112 v 352 c 0 26.5 21.5 48 48 48 h 352 c 26.5 0 48 -21.5 48 -48 V 112 c 0 -26.5 -21.5 -48 -48 -48 Z M 48 96 h 352 c 8.8 0 16 7.2 16 16 v 48 H 32 v -48 c 0 -8.8 7.2 -16 16 -16 Z m 352 384 H 48 c -8.8 0 -16 -7.2 -16 -16 V 192 h 384 v 272 c 0 8.8 -7.2 16 -16 16 Z m -92 -128 H 140 c -6.6 0 -12 -5.4 -12 -12 v -8 c 0 -6.6 5.4 -12 12 -12 h 168 c 6.6 0 12 5.4 12 12 v 8 c 0 6.6 -5.4 12 -12 12 Z"/>
</svg>
